<?xml version="1.0" encoding="UTF-8"?>
<!DOCTYPE svg PUBLIC "-//W3C//DTD SVG 1.1//EN" "http://www.w3.org/Graphics/SVG/1.1/DTD/svg11.dtd">
<!-- Creator: CorelDRAW 2018 (64-Bit) -->
<svg xmlns="http://www.w3.org/2000/svg" xml:space="preserve" width="39.546mm" height="33.645mm" version="1.1" style="shape-rendering:geometricPrecision; text-rendering:geometricPrecision; image-rendering:optimizeQuality; fill-rule:evenodd; clip-rule:evenodd"
viewBox="0 0 3954.6 3364.5"
 xmlns:xlink="http://www.w3.org/1999/xlink">
 <defs>
  <style type="text/css">
   <![CDATA[
    .fil0 {fill:#5B8C51}
    .fil1 {fill:#EDDC5E}
   ]]>
  </style>
 </defs>
 <g id="Layer_x0020_1">
  <metadata id="CorelCorpID_0Corel-Layer"/>
  <g id="_2141584313872">
   <path class="fil0" d="M1981.56 2043.62l19.44 19.41c-1.29,-1.26 -25.9,-12.93 -19.44,-19.41zm-1172.27 846.65c0,500.41 -14.6,349.75 130.25,455.88 0,-657.53 396.38,-1102.15 976.91,-1237.39 -187.77,256.26 -605.22,220.07 -781.52,976.89 464.65,-10.36 1431.54,-202.37 1776.12,-503.31 364.68,-318.49 698.68,-993.36 698.68,-1645.87 -887.27,425.73 -1942.4,-21.12 -2514.88,1001.96 -99.97,178.67 -285.56,707.44 -285.56,951.84z"/>
   <path class="fil1" d="M1330.31 1001.6c900.51,209.79 203.35,65.11 976.89,65.11 -199.55,-747.31 -1500.47,-703.77 -2094.48,-895.12 -225.49,-72.63 -151.2,-44.88 -51.73,366.39 84.31,348.57 191.65,593.92 441.5,865.8 140.42,152.76 225.02,155.33 402.18,249.08 89.35,-59.82 530.67,-445.31 586.14,-521.02 -179.72,-41.87 -146.75,-31.36 -260.5,-130.24z"/>
  </g>
 </g>
</svg>
